<svg version="1" xmlns="https://www.w3.org/2000/svg" width="933.333" height="933.333" viewBox="0 0 700.000000 700.000000"><path d="M53.3 227.5l-.2 21.5 5.7.1c3.1.1 7.7.3 10.2.4 2.5.2 5.7.3 7.2.4l2.7.1-.4 29.7c-.3 25.3-1.5 136.9-1.9 177.2-.1 14.4.5 13.7-12.1 14.1-9.9.3-11.8.4-13 1.2-.6.4-.9 7.9-.7 19.7l.3 19.1H159l.1-7.3c.5-35 .8-32.3-2.9-32.3-5.6-.1-28.7-1.5-29-1.9-.4-.3-.2-23 .3-46.5.3-13.6 1.6-72.9 2-96 .2-8 .4-16.4.4-18.7.1-3.7.3-4.1 2.2-3.8 1.2.3 2.2.6 2.3.7.1.2 2.6 7.5 5.5 16.3 16.5 50.2 47.3 133.3 59.5 161 1.3 2.7 2.8 6.5 3.5 8.3.8 1.7 1.9 3.2 2.5 3.3 4.9.4 39.2-.3 39.7-.9 1.5-1.5 28.9-67.2 39.4-94.2 3-8 7.3-19 9.5-24.5 6.2-16.2 21.1-57 22.6-62.3.2-.6 1.3-1.2 2.4-1.2 1.9 0 2 .6 2.1 9.2 0 5.1.2 20.5.4 34.3.2 13.7.6 45.4.9 70.2l.5 45.3-2.2.5c-1.2.2-7.3.6-13.5.8-6.2.3-11.5.7-11.8 1-.3.3-.7 9.1-.8 19.6l-.3 19.1H482l.1-6.3c.1-3.4.2-18.2.4-33l.4-26.7-8.7-.1c-4.8-.1-11.7-.1-15.4-.1-5.5-.1-6.8-.4-6.9-1.7-.3-3.9.2-63.5.5-63.8.2-.2 5.9 7.4 12.6 16.9 13.6 19 47 64 56.4 75.8 3.3 4.1 10.5 13.1 16 20s10.8 13.4 11.6 14.4c.8 1.1 3 3.6 4.8 5.7l3.3 3.7 12.7-.3c19.8-.5 40.7-4.6 54.1-10.6l6.6-2.9.1-30.8c.5-92 1.4-197.6 1.8-198 .4-.3 3.6-.7 16.6-1.6 2.3-.1 2.5-.6 3-5.7.3-3.1.5-17.7.5-32.5l-.1-26.9-64.5-.3c-51.3-.2-64.6 0-64.6 1-.1.7-.5 15.6-.9 33l-.7 31.8 2.4.1c1.3 0 8.2.2 15.3.4 7.1.3 13 .6 13.2.8.3.2.3 18.7.2 41.2l-.3 40.8-5.4-8.4c-3-4.6-7.8-12-10.6-16.4-10.7-16.5-72.6-109.3-77.7-116.5l-5.4-7.5-72.1-.3c-68-.2-72.1-.1-72.8 1.5-1.5 3.7-24.8 69.1-27.2 76.3-1.4 4.1-3.1 8.8-3.8 10.5-.8 1.6-1.8 4.6-2.4 6.5-.5 1.9-2.7 8.4-4.9 14.5-2.3 6-9.5 26.3-16 45-14.6 41.2-13.1 37.5-15.2 37.5-1.3 0-2.4-2-4.3-7.8-1.4-4.2-7.6-22.3-13.7-40.2-6.1-17.9-12.2-35.7-13.5-39.5-1.3-3.9-5.8-16.9-10-29-4.2-12.1-9.1-26.3-10.9-31.5-1.9-5.3-6.1-17.3-9.6-26.7l-6.2-17.2H53.5l-.2 21.4zm393.7-4.4c.5.8 2.2 3.4 4 5.9 7 10.1 18.6 27.2 20 29.5.8 1.4 3.6 5.5 6.1 9.2 5 7.3 31.4 47.3 42.1 63.8 3.6 5.5 11.3 17.3 17.2 26.3 5.8 9 10.6 16.7 10.6 17.2 0 .6.3 1 .8 1 .4 0 1.2.9 1.7 2 3.5 6.9 17.3 27 18.6 27 1.3 0 1.5-1.5 1.3-9.8-.1-5.3-.5-38.2-.8-73.1-.4-34.9-.7-63.6-.9-63.7-.1-.1-7-.4-15.2-.6l-15-.4v-15.9c0-8.8.1-16.9.3-18 .3-2 1.1-2 50-2h49.7l.1 15.4c.2 21.6.7 20.4-10.2 20.8-4.9.3-9.2.8-9.6 1.2-.7.6-1.3 51.1-2.2 186.9-.2 25-.7 45.7-1.2 46.1-1 .8-8.3 3.1-12.4 3.7-1.4.3-3.3.7-4.2 1-5 1.5-18 3.1-26.8 3.3-7.5.2-7.7.1-10-3-2.3-2.9-23.2-29.1-26.7-33.4-12-14.5-55.3-73.7-76.1-104-7.2-10.5-14.3-20.7-15.7-22.8-5.4-7.7-5.5-7.4-5.6 35.5 0 21.6-.2 50-.3 63l-.4 23.8 6.7.1c7 .1 21.9.6 23.6.8.6.1.9 4.3.8 10.8 0 6-.1 14-.2 18l-.1 7.2h-49.9c-38.4 0-50-.2-50.3-1.2-.5-1.4.1-33.9.6-34.4.1-.2 5-.6 10.7-.9 5.7-.3 10.6-.8 10.8-1 .4-.4.2-199.7-.3-200.1-.1-.2-5.5-.3-11.8-.4-7.9 0-11.8-.4-12-1.2-.5-1.5 0-32.7.5-34.2.3-.7 13.5-1 40.7-.9 33.4.1 40.4.3 41 1.5z"/></svg>
